<svg xmlns="http://www.w3.org/2000/svg" xmlns:xlink="http://www.w3.org/1999/xlink" width="27px" height="24px" viewBox="0 0 27 24" version="1.1">
    <g id="Final" stroke="none" stroke-width="1" fill="none" fill-rule="evenodd">
        <g id="Homepage_Desktop_05.14.19" transform="translate(-768.000000, -793.000000)">
            <g id="Invest-Spare-Change" transform="translate(762.000000, 784.457620)">
                <g id="Invest" transform="translate(7.000000, 9.000000)">
                    <circle id="Oval" fill="#00bcd4" cx="20.6666667" cy="8.88888889" r="4.88888889"/>       
                    <path fill-rule="evenodd" d="M 9.56677 0.127178C 9.8328 -0.0423927 10.1674 -0.0423927 10.4334 0.127178L 19.6991 6.03018C 19.8859 6.1492 19.9999 6.36114 19.9999 6.58957L 19.9999 7.56392C 19.9999 7.67959 19.9559 7.79052 19.8775 7.87231C 19.7991 7.95408 19.6927 8.00003 19.5819 8L 18.4167 7.99986C 18.1865 7.99986 18 8.1306 18 8.37071L 18 16.1692C 18 16.1692 18.0757 16.4612 18.1996 16.5401L 19.6992 17.5487C 19.886 17.6677 20 17.8796 20 18.1081L 20 19.5637C 20 19.6795 19.9559 19.7904 19.8775 19.8722C 19.7991 19.9541 19.6927 20 19.5818 20L 0.416748 20C 0.18663 20 8.39233e-05 19.8053 8.39233e-05 19.5652L 8.39233e-05 18.107C 9.15527e-05 17.8792 0.113754 17.6678 0.300079 17.5491L 1.80054 16.5401C 1.92444 16.4612 2.00001 16.3207 2 16.1692L 2 8.37071C 2 8.1306 1.81345 7.99986 1.58334 7.99986L 0.416664 7.99986C 0.186546 7.99986 0 7.80522 0 7.56509L 0 6.58847C 1.52588e-05 6.3607 0.113678 6.14938 0.299995 6.03071L 9.56677 0.127178ZM 4 8.5C 4 8.22386 4.22385 8 4.5 8L 6.16 8C 6.43614 8 6.66 8.22386 6.66 8.5L 6.66 16.5C 6.66 16.7761 6.43614 17 6.16 17L 4.5 17C 4.22385 17 4 16.7761 4 16.5L 4 8.5ZM 9.15997 8C 8.88383 8 8.65997 8.22386 8.65997 8.5L 8.65997 16.5C 8.65997 16.7761 8.88383 17 9.15997 17L 10.82 17C 11.0961 17 11.32 16.7761 11.32 16.5L 11.32 8.5C 11.32 8.22386 11.0961 8 10.82 8L 9.15997 8ZM 13.33 8.5C 13.33 8.22386 13.5539 8 13.83 8L 15.49 8C 15.7661 8 15.99 8.22386 15.99 8.5L 15.99 16.5C 15.99 16.7761 15.7661 17 15.49 17L 13.83 17C 13.5539 17 13.33 16.7761 13.33 16.5L 13.33 8.5ZM 10 6C 10.8284 6 11.5 5.32843 11.5 4.5C 11.5 3.67157 10.8284 3 10 3C 9.17157 3 8.5 3.67157 8.5 4.5C 8.5 5.32843 9.17157 6 10 6Z" transform="scale(.85) translate(6 6.25)" fill="#363F41">
                            </path>
                </g>
            </g>
        </g>
    </g>
</svg>