<svg xmlns="http://www.w3.org/2000/svg" width="27px" height="24px" viewBox="0 0 32 32"><path d="M13.11,21.31A3,3,0,0,0,15,22a3,3,0,1,0-3-3,3.07,3.07,0,0,0,.05.53l-.76.76h0A3,3,0,0,0,10,20a3,3,0,0,0,0,6,3,3,0,0,0,1.29-.3h0l.76.76A3.07,3.07,0,0,0,12,27a3,3,0,1,0,3-3,3,3,0,0,0-1.89.69l-.4-.4h0a2.92,2.92,0,0,0,0-2.58h0ZM15,18a1,1,0,1,1-1,1A1,1,0,0,1,15,18Zm-5,6a1,1,0,1,1,1-1A1,1,0,0,1,10,24Zm5,2a1,1,0,1,1-1,1A1,1,0,0,1,15,26ZM27,6H25V5a3,3,0,0,0-3-3H5A3,3,0,0,0,2,5V24a3,3,0,0,0,3,3,1,1,0,0,0,0-2,1,1,0,0,1-1-1V7.82A3,3,0,0,0,5,8H27a1,1,0,0,1,1,1v1H21a3,3,0,0,0,0,6h7v8a1,1,0,0,1-1,1H20a1,1,0,0,0,0,2h7a3,3,0,0,0,3-3V9A3,3,0,0,0,27,6ZM4,5A1,1,0,0,1,5,4H22a1,1,0,0,1,1,1V6H5A1,1,0,0,1,4,5Zm17,9a1,1,0,0,1,0-2h7v2Z" data-name="Share, Wallet Icon" stroke="#fff" fill="#363F41"/></svg>